<?xml version="1.0" encoding="UTF-8" standalone="no"?>
<svg
   xmlns:dc="http://purl.org/dc/elements/1.1/"
   xmlns:cc="http://creativecommons.org/ns#"
   xmlns:rdf="http://www.w3.org/1999/02/22-rdf-syntax-ns#"
   xmlns:svg="http://www.w3.org/2000/svg"
   xmlns="http://www.w3.org/2000/svg"
   id="svg16"
   version="1.1"
   style="overflow:visible"
   viewBox="-250 -250 500 500"
   height="1000px"
   width="1000px">
  <metadata
     id="metadata22">
    <rdf:RDF>
      <cc:Work
         rdf:about="">
        <dc:format>image/svg+xml</dc:format>
        <dc:type
           rdf:resource="http://purl.org/dc/dcmitype/StillImage" />
      </cc:Work>
    </rdf:RDF>
  </metadata>
  <defs
     id="defs20" />
  <rect
     id="rect2"
     fill-opacity="0"
     fill="rgb(0,0,0)"
     height="500"
     width="500"
     y="-250"
     x="-250" />
  <svg
     id="svg8"
     version="1.1"
     y="-250"
     x="-250"
     viewBox="-250 -250 500 500"
     height="500"
     width="500"
     style="overflow:visible">
    <g
       style="fill:#ffffff;stroke-linejoin:round"
       id="g6">
      <path
         style="fill:#ff0000;fill-opacity:1;stroke:#000000;stroke-width:0;stroke-linecap:butt;stroke-linejoin:round;stroke-opacity:0"
         id="path4"
         d="m 9.67215,-134.07407 c -7.340983,-0.0616 -15.568515,2.22501 -15.568515,2.22501 0,0 21.698375,15.44969 24.311954,37.870051 l -73.17956,3.433039 c 0,0 13.14831,18.303645 19.57686,19.319309 4.908724,0.775217 11.210735,1.284375 18.35813,1.600881 7.064265,13.012054 14.60283,25.84544 26.439505,37.06544 -23.391065,19.045015 -49.768945,32.908004 -77.22403,48.952945 l 8.99504,6.461963 c 10.13914,-4.896204 20.457034,-9.2531 30.76082,-13.65593 2.533203,45.524809 -19.360195,97.737252 -44.97962,119.668102 11.100745,0.42728 41.236135,-9.52663 58.580045,-55.153612 h 80.051215 c 0.251625,12.435245 0.08186,25.604294 -0.755557,39.122272 -0.777521,12.54931 5.967076,16.80586 14.055259,20.61216 9.041789,4.25459 13.053025,-11.86175 13.053025,-28.51555 0,-36.192912 -2.562087,-66.412792 -4.867347,-86.326847 l 26.451486,17.052955 35.836,-16.31014 c 2.00718,-4.053565 0.77581,-7.643625 -4.69702,-10.62704 l -98.4232,-45.077285 32.740895,-35.374705 c 13.385375,-0.763088 22.778725,-1.414562 22.778725,-1.414562 7.72842,0.997483 15.92959,3.032222 23.18494,-0.303102 8.37541,-3.850143 -11.82393,-28.755164 -18.88173,-29.767764 -6.520054,-0.57352 -21.776661,6.141002 -21.776661,6.141002 l -43.84062,2.056693 c 2.672238,-3.198873 4.475241,-6.945505 4.445899,-10.627045 -0.107729,-13.51925 -15.536895,-24.69717 -30.59677,-27.95199 -1.487602,-0.3215 -3.135217,-0.45956 -4.829284,-0.47377 z m -129.65305,24.86751 c 0,0 23.210525,39.720504 35.64186,43.736244 15.560949,5.027282 22.43116,-8.031668 16.063469,-20.108875 -9.29475,-17.633079 -51.705329,-23.627369 -51.705329,-23.627369 z m 165.26975,39.111735 c -6.272686,8.68666 -12.956125,16.43067 -20.00118,23.449545 -11.02416,-6.446145 -18.92831,-13.665621 -27.889946,-22.62377 15.032249,0.168257 31.987115,-0.219123 47.891125,-0.826277 z m -177.3219,35.953385 c -10.29172,0.03009 -18.41678,1.145196 -18.41678,1.145196 0,0 33.13513,31.890895 46.1879,32.364089 16.34031,0.592832 19.39776,-13.846245 9.98826,-23.73132 -7.72797,-8.11739 -24.5361,-9.834245 -37.7649,-9.782735 z m 63.623604,3.008711 -41.370014,112.451599 c -15.14266,-5.212472 -30.34551,-7.261338 -30.34551,-7.261338 0,0 25.08537,41.183608 38.2058,47.771528 16.426083,8.24667 26.283023,-5.08244 21.272528,-19.58595 -0.591022,-1.71088 -1.499961,-3.320189 -2.625438,-4.849943 l 18.37615,-117.9681 -3.513178,-10.557425 z m 96.43505,11.536455 31.421354,20.25958 c 0.613394,3.950502 1.268879,8.388471 1.954966,13.768215 h -63.69577 c 0.380341,-5.414704 0.614456,-11.10168 0.721922,-17.0153 10.116275,-4.918483 20.04776,-10.38938 29.596234,-17.012325 z m -32.41288,53.791399 h 67.96294 c 0.56678,6.169631 1.074204,12.77924 1.470789,19.763775 H -8.179772 c 1.483479,-6.104539 2.764616,-12.67707 3.79349,-19.763775 z" />
    </g>
  </svg>
  <svg
     id="svg14"
     version="1.1"
     y="-250"
     x="-250"
     viewBox="-250 -250 500 500"
     height="500"
     width="500"
     style="overflow:visible">
    <g
       style="fill:#ffffff;stroke-linejoin:round"
       id="g12">
      <path
         style="fill:none;stroke:#ff0000;stroke-width:24;stroke-linecap:round;stroke-linejoin:round;stroke-opacity:1"
         id="path10"
         d="M 195,0 A 195,195 0 0 1 0,195 195,195 0 0 1 -195,0 195,195 0 0 1 0,-195 195,195 0 0 1 195,0 Z" />
    </g>
  </svg>
</svg>
